PathFileType	4	(X/Y/Z)	path1_18_0-549.trc
DataRate	CameraRate	NumFrames	NumMarkers	Units	OrigDataRate	OrigDataStartFrame	OrigNumFrames
30	30	8	22	m	30	274	549
Frame#	Time	Hip			RHip			RKnee			RAnkle			RBigToe			RSmallToe			RHeel			LHip			LKnee			LAnkle			LBigToe			LSmallToe			LHeel			Neck			Head			Nose			RShoulder			RElbow			RWrist			LShoulder			LElbow			LWrist		
		X1	Y1	Z1	X2	Y2	Z2	X3	Y3	Z3	X4	Y4	Z4	X5	Y5	Z5	X6	Y6	Z6	X7	Y7	Z7	X8	Y8	Z8	X9	Y9	Z9	X10	Y10	Z10	X11	Y11	Z11	X12	Y12	Z12	X13	Y13	Z13	X14	Y14	Z14	X15	Y15	Z15	X16	Y16	Z16	X17	Y17	Z17	X18	Y18	Z18	X19	Y19	Z19	X20	Y20	Z20	X21	Y21	Z21	X22	Y22	Z22
275	9.166666666666666	2.50300328838527	0.8309764659055165	0.6016610857727899	2.5071825763154223	0.7912116813315357	0.5242355972870584	2.488917271242269	0.4600293134293935	0.523432953236709	2.5604287538021957	0.09861983677001976	0.566350626286998	2.3631980630392726	0.01505387838139179	0.5394959881746845	2.3979257845966635	0.022821676861065704	0.4807658529887538	2.6110571158466667	0.03388271999243912	0.5680821090366642	2.495894614218074	0.7875102852302409	0.6827760592639865	2.5081644462774064	0.4319462250355136	0.6607655538224917	2.544122290842578	0.10916776184623368	0.672179637557797	2.3843698661747728	0.01618422854554149	0.6747065049000281	2.416880824827352	0.023729636388881988	0.7338094037346026	2.586393375805208	0.041568846784147934	0.6716722990161081	2.4624887254929115	1.4679551961991473	0.6261156776643351	2.4327981361269546	1.7131138511526818	0.5597725787538058	2.3243754551138753	1.6075063157055343	0.5959650512509489	2.523392312140576	1.3637534831852247	0.4528956748179141	2.5127002756658388	1.0773707618171133	0.39765455051873494	2.4995412694502255	0.8422895388039038	0.4002393429571996	2.4632137991717533	1.3434895147444204	0.7878891651071384	2.4953182585937697	1.0641045745051456	0.8175876470451638	2.4875728517822773	0.8289000387343147	0.818332777092239
276	9.2	2.5026565489882353	0.831208944404212	0.6014829681753763	2.5067934419472113	0.7911700427578887	0.5241975509173706	2.488747382700852	0.4600755004486986	0.5234752321012999	2.5602029433321594	0.09878824440426488	0.5666283378921552	2.3635443732201793	0.015723641593649224	0.5405511129295043	2.3983001796494916	0.022798375889133506	0.4807238262219873	2.611271860437857	0.03381559845962042	0.568794736782178	2.4955402148000347	0.7874079191402199	0.6824677869744648	2.507365817871341	0.4333686856553605	0.6621245321905924	2.5441043106320387	0.10892831667267236	0.6721119095889605	2.3843384538273478	0.01658458330503936	0.6750000743941322	2.4167480587888956	0.023597367899160008	0.7334192271163056	2.585778803836632	0.04147815328546147	0.6719706476932282	2.462383295250716	1.4680162357462543	0.6261478905454618	2.4333285223339383	1.7127798710595785	0.5600465179782517	2.324701660437107	1.607593201984864	0.596534288777727	2.5235196773243826	1.363877308238888	0.4528459889179991	2.5126819570579193	1.0772333945194197	0.39754475683309864	2.4995740271631615	0.8422908378689611	0.40060226375908703	2.4612799265188996	1.34300625701806	0.7900662457120777	2.495117367102788	1.0639869328700509	0.8176522230927042	2.4873580429160467	0.8291143712318648	0.8184991759210962
277	9.233333333333333	2.502396941412292	0.831366744844318	0.6014509277198317	2.506696707103602	0.7911337304173147	0.5242353213995252	2.488821423413793	0.4601297247587781	0.5236230895768974	2.5601723257821276	0.0986957089329551	0.5669182361495688	2.363561873471281	0.01591860514899817	0.5412288295754842	2.398555480228268	0.02262503759268526	0.48049771202501723	2.6115372472796317	0.033501600672537005	0.5694114396258441	2.4952954557554055	0.7875238298996204	0.6824653292287235	2.506444131297614	0.43472574761903765	0.6635669858669638	2.5430707327965907	0.10979031246170744	0.6722699338733268	2.3843922826401482	0.016959323956445272	0.6749620783790806	2.4164896478003937	0.02348914017361248	0.7328708023567619	2.5849538671302827	0.041357411560468606	0.672262456806431	2.4625074322090885	1.4680598787048917	0.6264016520087167	2.4337093194326416	1.712523700849343	0.5607404917216702	2.325092175682498	1.6073802024928379	0.5973186340838242	2.5237244397203296	1.364097173872623	0.45303454050292025	2.512649164460573	1.077046746257975	0.39744640258184183	2.499637460969987	0.8421881983703499	0.40090750064932296	2.4601494437009763	1.3426540078669975	0.791926688542089	2.494878001514691	1.0638853514398132	0.8177457823086346	2.487281906485958	0.829252732906588	0.8185303185476405
278	9.266666666666667	2.502368109149986	0.8313837972720074	0.6015127232891013	2.50697008058416	0.7911389711155726	0.5243448155639818	2.489192058001377	0.4602062043943327	0.5238679650062864	2.5604032131504164	0.09830276205593508	0.5671220081517659	2.363085389071721	0.015486592947896826	0.5411973045335203	2.3985837560614938	0.022320729006033036	0.4800646405311408	2.6118756053553094	0.03298014000054657	0.5697813727918265	2.4952230603152987	0.7878849192613947	0.6828005198362114	2.505745885314286	0.4353965170897255	0.6643139838233438	2.5413806957523777	0.1113551786982672	0.6725346317049968	2.3845640487321655	0.017025123217748232	0.6744535844729889	2.416217627828875	0.023374717656457048	0.7322562726968698	2.5840574079423577	0.04117861846026231	0.6724264835900887	2.4628779644399925	1.468029329898542	0.6268028205196976	2.4337749289032184	1.7124603194423842	0.5615551334757194	2.32541721187856	1.606852454022884	0.5980405629014385	2.5239695143083436	1.3643588618356637	0.45337486160350865	2.512614265682068	1.0767379211585546	0.39743665544614154	2.4996798718713777	0.8418442224079594	0.40117678280562186	2.460043915121858	1.3424966673169991	0.7933374862634183	2.494675580115982	1.0638026262230884	0.8178117430622964	2.487309668249848	0.8292903574565144	0.8184023069721638
279	9.3	2.5025522694770457	0.8312659834922901	0.6015643324084405	2.507495011425569	0.7911576066588921	0.5244981833149032	2.4897934563943918	0.460298422303157	0.524143948037309	2.5608401496752236	0.09767956087452814	0.56723689998657	2.3623054592007904	0.014575558316175153	0.5406255972339558	2.398430887407882	0.0219525805280601	0.4794708999210947	2.6122580315840547	0.03240490903349156	0.5698772197255288	2.4952602756370412	0.7884184704272363	0.6833146937925736	2.505500230461415	0.43504753751905545	0.6638392241756752	2.5396662736949933	0.11287269965265158	0.672713684701375	2.3848008477139553	0.01678258223712181	0.6736776093329314	2.41597176408986	0.02325992079466678	0.7316933927703697	2.583136678184085	0.04097977900256493	0.6723641164903332	2.4633829486608407	1.467948393138699	0.6272097336211249	2.433454622538908	1.7125671258149753	0.5621277044496277	2.325603052310935	1.6061465184366892	0.5984796302946409	2.524191550964494	1.3645702644512137	0.45366203027514096	2.512570271864016	1.0763173487317679	0.39752229111379833	2.499662939764043	0.8412564728481284	0.4013931749708778	2.4607402211309477	1.3425287266674228	0.7942651392219195	2.494560889780292	1.0637329860915286	0.8177958749397415	2.487360690625902	0.8292280628680916	0.8181435694278841
280	9.333333333333334	2.5027986733902226	0.8311020352342317	0.6015230063223669	2.5080406952807306	0.7911265030713182	0.5246076174002827	2.4904688392589516	0.4603500236817521	0.5243446295517362	2.5613139739892943	0.0970043726724084	0.5672957173537384	2.3616009043028545	0.0134848412704449	0.5399343450624113	2.3982490465407245	0.021598035450148424	0.47880834878722384	2.6125670864375015	0.03193199976386901	0.5697681377866352	2.495303635043674	0.7889433154632509	0.683748023763359	2.505587206232934	0.43404148541722254	0.6624618647880546	2.538404392170638	0.11377259879299953	0.6726933979339932	2.3850387695026463	0.01644179739171639	0.6730563289081155	2.4157749088433347	0.023136712548330836	0.7312882019663307	2.5821735008525875	0.04085852475276127	0.6720628086860136	2.4638387406894893	1.4679042015224653	0.6274587337996382	2.4328996120008823	1.7126905819926324	0.5622564979582321	2.325659880835713	1.6054754887806748	0.5985750030293578	2.524328253347256	1.3646616458471919	0.4536693605292405	2.512516779263071	1.075911715021069	0.3976460924292294	2.499601489590312	0.8405804382135524	0.4014744279632097	2.4617850619910358	1.3426946906325354	0.7946959093382295	2.49454644011768	1.0636852825845178	0.8176912859194944	2.4873548628382465	0.8290706455615444	0.8178289015797743
281	9.366666666666667	2.5029811034752125	0.8309879746656011	0.6013882145732582	2.5084214420592654	0.7910104090254126	0.5245858729333506	2.4910768782669064	0.460292410272098	0.5244036795570474	2.5616272271879534	0.09644699399323338	0.5672912364232862	2.3611875147199277	0.012471351112176671	0.5394352608909341	2.3981538273077834	0.021295246352340966	0.4781678588211237	2.612662913230758	0.03161292812150058	0.5695168248113871	2.4953151433432623	0.7892705990247215	0.6839323341643079	2.5057308625420394	0.433049117332857	0.6609981445194546	2.5378357370426845	0.11380277704634643	0.672459581627466	2.3852480937418155	0.01615597221563275	0.6728597040134466	2.415646228646905	0.022982509441557518	0.7310895389011963	2.581217708437585	0.040865079192308376	0.6716038180868219	2.4641202210854782	1.4679436700752493	0.6274474043768973	2.4323936138097615	1.7126790669945124	0.5620278127207026	2.325652325620056	1.6049955433722933	0.5983504764840702	2.5243508015138167	1.3646180455663222	0.4533210079894169	2.5124569608951117	1.0756673864137967	0.39774128981222023	2.499555512352385	0.8400348603864158	0.40134471078361666	2.4628003736020703	1.3429144164363076	0.7946753633875481	2.4946174446907468	1.063670514418884	0.8175224397190942	2.487281659700461	0.8288567952343622	0.8175412067967094
282	9.4	2.5030533515067783	0.8309662410401144	0.6012231922904234	2.508579783291281	0.7908257957889778	0.5244367579114935	2.4915397737222507	0.46010402464139916	0.5243347057978742	2.5616671490963827	0.0961053693678146	0.5672018641507631	2.3610118929564177	0.011697903991604464	0.5392656084033868	2.398172818623522	0.021044813061566015	0.4776389463638804	2.61252106339261	0.03139757516210002	0.5691706565539796	2.4953148773099096	0.7893277953490299	0.6838754300300948	2.5057516545222804	0.43254502631208136	0.6601467025586966	2.53801228274642	0.1129562961882396	0.6720529843694001	2.385406403481786	0.0159067258116857	0.6730112225521456	2.4155774596413706	0.022809996516237552	0.7310650041260129	2.5804236063649144	0.04094825743881697	0.6711047197146286	2.4642178647791884	1.4680339557714979	0.6271765061416178	2.4321738065529033	1.712496616303702	0.5617016864119544	2.32566328267323	1.604759739213112	0.5979047598750424	2.5242847548391953	1.3644815049194543	0.4527472653949841	2.512385097166314	1.0756623830577432	0.3977559586522907	2.499572426832454	0.8397921077395133	0.4010096946323618	2.4635775102755084	1.3431007918858557	0.7943445976763092	2.494739818838567	1.0636835177596922	0.8173345380251404	2.4871964828316426	0.8286631855951817	0.8173405551070774
